<svg xmlns="http://www.w3.org/2000/svg" width="1200" height="650" viewBox="0 0 1200 650" role="img" aria-labelledby="chart-title chart-desc">
<title id="chart-title">Directly computed MOF coverage for the eight-gas process panel</title>
<desc id="chart-desc">Every gas has a directly computed Henry constant for the same 471 MOFs out of 1940 unique MOFs.</desc>
<rect width="100%" height="100%" fill="#FFFFFF"/>
<g font-family="Arial, Helvetica, sans-serif" fill="#162236">
<text x="24" y="34" font-size="22" font-weight="700">All eight process gases share the same 471 computed MOFs</text>
<text x="24" y="58" font-size="13" fill="#526071">Computed pairs only · denominator = 1,940 unique MOFs in final.csv</text>
<line x1="250.0" y1="86" x2="250.0" y2="568" stroke="#D9E2EC" stroke-width="1"/>
<text x="250.0" y="588" text-anchor="middle" font-size="12" fill="#526071">0</text>
<line x1="402.0" y1="86" x2="402.0" y2="568" stroke="#D9E2EC" stroke-width="1"/>
<text x="402.0" y="588" text-anchor="middle" font-size="12" fill="#526071">100</text>
<line x1="554.0" y1="86" x2="554.0" y2="568" stroke="#D9E2EC" stroke-width="1"/>
<text x="554.0" y="588" text-anchor="middle" font-size="12" fill="#526071">200</text>
<line x1="706.0" y1="86" x2="706.0" y2="568" stroke="#D9E2EC" stroke-width="1"/>
<text x="706.0" y="588" text-anchor="middle" font-size="12" fill="#526071">300</text>
<line x1="858.0" y1="86" x2="858.0" y2="568" stroke="#D9E2EC" stroke-width="1"/>
<text x="858.0" y="588" text-anchor="middle" font-size="12" fill="#526071">400</text>
<line x1="1010.0" y1="86" x2="1010.0" y2="568" stroke="#D9E2EC" stroke-width="1"/>
<text x="1010.0" y="588" text-anchor="middle" font-size="12" fill="#526071">500</text>
<text x="236" y="128.4" text-anchor="end" font-size="15" font-weight="600">Methane</text>
<rect x="250" y="106.3" width="715.9" height="34.1" rx="4" fill="#3D8DFF"/>
<text x="975.9" y="128.4" font-size="14" font-weight="700">471 <tspan fill="#526071" font-weight="400">(24.3%)</tspan></text>
<text x="236" y="187.1" text-anchor="end" font-size="15" font-weight="600">Ethane</text>
<rect x="250" y="165.1" width="715.9" height="34.1" rx="4" fill="#3D8DFF"/>
<text x="975.9" y="187.1" font-size="14" font-weight="700">471 <tspan fill="#526071" font-weight="400">(24.3%)</tspan></text>
<text x="236" y="245.9" text-anchor="end" font-size="15" font-weight="600">Ethylene</text>
<rect x="250" y="223.8" width="715.9" height="34.1" rx="4" fill="#3D8DFF"/>
<text x="975.9" y="245.9" font-size="14" font-weight="700">471 <tspan fill="#526071" font-weight="400">(24.3%)</tspan></text>
<text x="236" y="304.6" text-anchor="end" font-size="15" font-weight="600">Propane</text>
<rect x="250" y="282.6" width="715.9" height="34.1" rx="4" fill="#3D8DFF"/>
<text x="975.9" y="304.6" font-size="14" font-weight="700">471 <tspan fill="#526071" font-weight="400">(24.3%)</tspan></text>
<text x="236" y="363.4" text-anchor="end" font-size="15" font-weight="600">Propylene</text>
<rect x="250" y="341.3" width="715.9" height="34.1" rx="4" fill="#3D8DFF"/>
<text x="975.9" y="363.4" font-size="14" font-weight="700">471 <tspan fill="#526071" font-weight="400">(24.3%)</tspan></text>
<text x="236" y="422.1" text-anchor="end" font-size="15" font-weight="600">Isobutane</text>
<rect x="250" y="400.1" width="715.9" height="34.1" rx="4" fill="#6DCBF4"/>
<text x="975.9" y="422.1" font-size="14" font-weight="700">471 <tspan fill="#526071" font-weight="400">(24.3%)</tspan></text>
<text x="236" y="480.9" text-anchor="end" font-size="15" font-weight="600">Isopentane</text>
<rect x="250" y="458.8" width="715.9" height="34.1" rx="4" fill="#6DCBF4"/>
<text x="975.9" y="480.9" font-size="14" font-weight="700">471 <tspan fill="#526071" font-weight="400">(24.3%)</tspan></text>
<text x="236" y="539.6" text-anchor="end" font-size="15" font-weight="600">2-Pentene</text>
<rect x="250" y="517.6" width="715.9" height="34.1" rx="4" fill="#6DCBF4"/>
<text x="975.9" y="539.6" font-size="14" font-weight="700">471 <tspan fill="#526071" font-weight="400">(24.3%)</tspan></text>
<text x="630.0" y="616" text-anchor="middle" font-size="13" font-weight="700">MOFs with a directly computed Henry constant</text>
<rect x="24" y="614" width="15" height="15" rx="3" fill="#3D8DFF"/><text x="47" y="626" font-size="12">Core feed/product gases</text>
<rect x="205" y="614" width="15" height="15" rx="3" fill="#6DCBF4"/><text x="228" y="626" font-size="12">C4/C5 coverage-matched proxies</text>
<text x="1176" y="626" text-anchor="end" font-size="11" fill="#526071">Source: D-MOPH-25 final.csv</text>
</g>
</svg>
